<svg xmlns="http://www.w3.org/2000/svg" xmlns:xlink="http://www.w3.org/1999/xlink" width="20.539" height="18.004" viewBox="0 0 20.539 18.004">
    <defs>
        <style>.a{fill:#2775ab;}.b{clip-path:url(#a);}</style>
        <clipPath id="a">
            <rect class="a" width="20.539" height="18.004"/>
        </clipPath>
    </defs>
    <g transform="translate(0 0)">
        <g class="b" transform="translate(0 0)">
            <path class="a" d="M10.267,18a1.048,1.048,0,0,1-.746-.347L1.743,9.88A5.853,5.853,0,0,1,.194,7.238,5.573,5.573,0,0,1,0,5.73,5.64,5.64,0,0,1,1.116,2.353,5.666,5.666,0,0,1,4.663.111a5.319,5.319,0,0,1,.9-.1,5.561,5.561,0,0,1,2.9.678,5.519,5.519,0,0,1,1.31.969l.491.491.377-.378a6.207,6.207,0,0,1,1.2-.95A5.835,5.835,0,0,1,13.954.072a3.323,3.323,0,0,1,.838-.064A5.748,5.748,0,0,1,18.935,1.77a5.624,5.624,0,0,1,1.554,3.236,5.653,5.653,0,0,1-1.1,4.19,5.451,5.451,0,0,1-.5.58l-7.884,7.883a1.04,1.04,0,0,1-.742.346M5.767,1.8l-.146,0a3.643,3.643,0,0,0-.607.063A3.957,3.957,0,0,0,1.793,5.746a3.686,3.686,0,0,0,.133,1.029A4,4,0,0,0,3.01,8.612l7.256,7.254,7.358-7.358a3.235,3.235,0,0,0,.327-.376,3.866,3.866,0,0,0,.761-2.9A3.86,3.86,0,0,0,17.639,3.01a3.912,3.912,0,0,0-1.272-.883,3.925,3.925,0,0,0-2.142-.284,4.054,4.054,0,0,0-1.467.524,4.437,4.437,0,0,0-.853.683l-.938.938a.983.983,0,0,1-1.408,0L8.507,2.931a3.759,3.759,0,0,0-.889-.656A3.844,3.844,0,0,0,5.767,1.8" transform="translate(0 0)"/>
        </g>
    </g>
</svg>